<?xml version="1.0" encoding="UTF-8"?>
<svg id="Ebene_2" data-name="Ebene 2" xmlns="http://www.w3.org/2000/svg" viewBox="0 0 350 350">
  <defs>
    <style>
      .cls-1 {
        fill: #1d1d1b;
      }
    </style>
  </defs>
  <g id="Ebene_1-2" data-name="Ebene 1">
    <rect class="cls-1" x="150" y="0" width="50" height="50" rx="10" ry="10" transform="translate(350 50) rotate(180)"/>
    <rect class="cls-1" x="150" y="100" width="50" height="50" rx="10" ry="10" transform="translate(350 250) rotate(180)"/>
    <rect class="cls-1" x="150" y="200" width="50" height="50" rx="10" ry="10" transform="translate(350 450) rotate(180)"/>
    <rect class="cls-1" x="150" y="300" width="50" height="50" rx="10" ry="10" transform="translate(350 650) rotate(180)"/>
    <rect class="cls-1" x="300" y="200" width="50" height="50" rx="10" ry="10" transform="translate(650 450) rotate(180)"/>
    <rect class="cls-1" x="300" y="300" width="50" height="50" rx="10" ry="10" transform="translate(650 650) rotate(180)"/>
    <rect class="cls-1" x="300" y="0" width="50" height="50" rx="10" ry="10" transform="translate(650 50) rotate(180)"/>
    <rect class="cls-1" x="300" y="100" width="50" height="50" rx="10" ry="10" transform="translate(650 250) rotate(180)"/>
    <rect class="cls-1" x="0" y="0" width="50" height="50" rx="10" ry="10" transform="translate(50 50) rotate(180)"/>
    <rect class="cls-1" x="0" y="100" width="50" height="50" rx="10" ry="10" transform="translate(50 250) rotate(180)"/>
    <rect class="cls-1" x="0" y="200" width="50" height="50" rx="10" ry="10" transform="translate(50 450) rotate(180)"/>
    <rect class="cls-1" x="0" y="300" width="50" height="50" rx="10" ry="10" transform="translate(50 650) rotate(180)"/>
    <rect class="cls-1" x="50" y="50" width="100" height="50" rx="10" ry="10" transform="translate(200 150) rotate(180)"/>
    <rect class="cls-1" x="50" y="250" width="100" height="50" rx="10" ry="10" transform="translate(200 550) rotate(180)"/>
    <rect class="cls-1" x="50" y="150" width="100" height="50" rx="10" ry="10" transform="translate(200 350) rotate(180)"/>
    <rect class="cls-1" x="200" y="50" width="100" height="50" rx="10" ry="10" transform="translate(500 150) rotate(180)"/>
    <rect class="cls-1" x="200" y="250" width="100" height="50" rx="10" ry="10" transform="translate(500 550) rotate(180)"/>
    <rect class="cls-1" x="200" y="150" width="100" height="50" rx="10" ry="10" transform="translate(500 350) rotate(180)"/>
  </g>
</svg>